<?xml version="1.0" standalone="no"?>
<!DOCTYPE svg PUBLIC "-//W3C//DTD SVG 20010904//EN"
 "http://www.w3.org/TR/2001/REC-SVG-20010904/DTD/svg10.dtd">
<svg version="1.0" xmlns="http://www.w3.org/2000/svg"
 width="200.000000pt" height="200.000000pt" viewBox="0 0 200.000000 200.000000"
 preserveAspectRatio="xMidYMid meet">
<metadata>
Created by potrace 1.14, written by Peter Selinger 2001-2017
</metadata>
<g transform="translate(0.000000,200.000000) scale(0.100000,-0.100000)"
fill="#000000" stroke="none">
<path d="M913 1798 c2 -8 31 -50 64 -93 33 -44 104 -140 158 -212 54 -73 101
-133 104 -133 3 0 32 36 64 80 l58 80 29 -20 c50 -35 60 -28 60 42 l0 62 67
68 c37 37 65 70 62 72 -7 7 -53 14 -149 21 -47 4 -96 8 -110 10 -14 1 -64 6
-110 10 -47 4 -101 8 -120 10 -178 17 -183 17 -177 3z m322 -34 c33 -3 76 -7
95 -9 19 -2 55 -4 79 -4 42 -1 50 -12 13 -18 -9 -1 -47 -9 -84 -16 -89 -19
-116 -16 -228 27 l-95 36 80 -5 c44 -3 107 -8 140 -11z m-51 -112 c2 -4 7 -34
10 -67 4 -33 9 -82 12 -110 7 -59 10 -61 -86 70 -131 179 -146 200 -154 213
-4 7 42 -12 103 -43 61 -31 112 -59 115 -63z m311 28 c-27 -28 -56 -50 -64
-50 -9 0 -47 12 -86 27 l-70 27 80 16 c122 26 180 36 184 33 3 -2 -17 -26 -44
-53z m-320 19 c30 -11 55 -25 55 -30 0 -15 -14 -11 -71 21 -64 35 -60 38 16 9z
m178 -65 l77 -29 0 -37 c0 -42 -13 -49 -30 -18 -6 11 -42 36 -80 55 -43 22
-70 41 -70 51 0 9 6 14 13 11 6 -2 47 -17 90 -33z m1 -73 c4 -6 -79 -135 -110
-170 -10 -11 -15 18 -30 177 l-6 73 70 -35 c39 -20 73 -40 76 -45z m41 -31 c3
-6 -1 -7 -9 -4 -18 7 -21 14 -7 14 6 0 13 -4 16 -10z"/>
<path d="M1510 1470 c0 -5 7 -10 16 -10 8 0 12 5 9 10 -3 6 -10 10 -16 10 -5
0 -9 -4 -9 -10z"/>
<path d="M1575 1430 c10 -11 23 -20 28 -20 6 0 2 9 -8 20 -10 11 -23 20 -28
20 -6 0 -2 -9 8 -20z"/>
<path d="M1630 1394 c0 -9 32 -33 44 -34 5 0 1 9 -9 20 -18 20 -35 26 -35 14z"/>
<path d="M1006 1094 c-147 -146 -266 -267 -264 -270 4 -3 495 481 527 519 42
52 -24 -11 -263 -249z"/>
<path d="M1031 1060 c-166 -165 -301 -303 -301 -307 0 -3 2 -4 5 -2 24 22 597
594 601 601 17 28 -35 -23 -305 -292z"/>
<path d="M982 1132 c-203 -204 -286 -292 -218 -232 21 19 426 424 445 445 2 3
1 5 -3 5 -4 0 -104 -98 -224 -218z"/>
<path d="M1060 1029 c-176 -177 -319 -323 -316 -326 2 -2 150 142 329 321 179
179 321 326 317 326 -5 0 -153 -145 -330 -321z"/>
<path d="M1100 1006 c-190 -190 -346 -350 -348 -356 -3 -7 154 146 347 339
315 316 359 361 348 361 -2 0 -158 -155 -347 -344z"/>
<path d="M1702 1320 c7 -11 16 -20 21 -20 4 0 3 9 -3 20 -6 11 -15 20 -20 20
-6 0 -5 -9 2 -20z"/>
<path d="M1125 971 c-198 -197 -361 -365 -364 -372 -2 -7 161 152 364 355 202
202 365 369 363 372 -3 2 -166 -158 -363 -355z"/>
<path d="M940 1149 c-95 -94 -170 -172 -168 -174 2 -2 67 58 143 134 169 167
211 211 203 211 -4 0 -84 -77 -178 -171z"/>
<path d="M1150 933 c-212 -213 -374 -378 -360 -368 32 26 750 743 750 750 0 3
-1 5 -3 5 -1 0 -175 -174 -387 -387z"/>
<path d="M1185 910 c-447 -448 -400 -400 -391 -400 8 0 786 776 786 785 0 3
-1 5 -3 5 -2 0 -178 -176 -392 -390z"/>
<path d="M1210 875 c-223 -223 -401 -405 -397 -405 4 0 127 119 273 265 146
146 272 265 280 265 8 0 19 11 23 24 5 13 59 73 120 134 97 98 119 122 108
122 -1 0 -184 -182 -407 -405z"/>
<path d="M1746 1272 c-3 -5 3 -17 14 -27 23 -21 26 -9 6 18 -8 10 -17 14 -20
9z"/>
<path d="M911 1180 c-45 -44 -81 -83 -81 -86 0 -9 115 99 148 139 43 50 14 28
-67 -53z"/>
<path d="M1242 847 c-221 -221 -402 -406 -402 -411 0 -4 55 47 122 114 67 67
128 123 135 124 18 3 53 37 48 46 -6 10 203 220 219 220 15 0 86 72 86 87 0 7
48 60 106 118 59 58 102 105 98 105 -5 0 -190 -181 -412 -403z"/>
<path d="M1270 815 c-228 -228 -411 -415 -407 -415 5 0 62 54 128 120 65 66
119 115 119 108 0 -7 22 10 50 37 27 26 47 52 45 55 -6 10 151 170 159 162 8
-8 146 128 146 145 0 6 41 52 90 102 79 79 98 101 87 101 -1 0 -189 -187 -417
-415z"/>
<path d="M1791 1200 c0 -8 6 -24 14 -34 11 -15 15 -16 15 -5 0 8 -7 24 -15 35
-11 14 -14 15 -14 4z"/>
<path d="M1300 785 c-228 -228 -411 -415 -406 -415 4 0 57 49 118 110 60 61
115 110 122 110 15 0 116 102 116 116 0 15 98 114 113 114 16 0 157 142 161
161 1 8 46 58 100 112 54 54 96 100 94 102 -2 2 -190 -182 -418 -410z"/>
<path d="M1330 755 c-228 -228 -411 -415 -407 -415 5 0 58 49 119 110 61 60
116 110 122 110 15 0 118 104 111 112 -8 7 75 88 90 88 13 0 155 142 155 156
0 5 52 63 116 128 64 64 114 119 112 121 -2 2 -190 -182 -418 -410z"/>
<path d="M1360 725 c-228 -228 -411 -415 -406 -415 4 0 60 52 124 115 63 63
118 113 122 110 8 -5 132 119 125 126 -3 3 4 14 15 24 11 10 20 14 20 9 0 -5
36 27 80 71 44 44 80 85 80 91 0 6 59 70 131 143 72 73 130 134 127 136 -2 2
-190 -182 -418 -410z"/>
<path d="M1831 1106 c7 -14 16 -26 20 -26 12 0 -6 43 -20 48 -9 3 -9 -2 0 -22z"/>
<path d="M1392 697 c-221 -221 -402 -406 -402 -411 0 -5 54 46 121 113 67 66
126 121 133 121 14 0 276 261 276 276 0 6 66 77 146 157 81 81 142 147 138
147 -5 0 -190 -181 -412 -403z"/>
<path d="M1427 672 c-218 -218 -397 -401 -397 -406 0 -5 57 48 127 117 69 70
131 127 137 127 13 0 219 206 234 234 5 11 72 83 149 160 125 126 161 166 151
166 -2 0 -182 -179 -401 -398z"/>
<path d="M1858 1025 c2 -14 8 -25 13 -25 10 0 11 12 3 34 -10 25 -22 19 -16
-9z"/>
<path d="M1450 635 c-217 -217 -390 -395 -385 -395 6 0 73 63 149 140 77 77
144 140 150 140 14 0 152 139 157 158 3 7 78 87 168 177 91 91 162 167 160
170 -3 2 -182 -173 -399 -390z"/>
<path d="M1485 610 c-208 -208 -377 -381 -374 -384 5 -5 759 747 759 758 0 3
-1 6 -3 6 -1 0 -173 -171 -382 -380z"/>
<path d="M1875 957 c3 -7 -160 -177 -368 -385 -205 -205 -371 -375 -368 -377
9 -9 41 -5 41 6 0 5 -6 7 -12 3 -19 -11 -29 -21 352 361 195 195 360 355 366
355 7 0 9 10 6 25 -2 14 -8 25 -13 25 -5 0 -6 -6 -4 -13z"/>
<path d="M1544 548 c-188 -189 -340 -349 -337 -355 15 -39 56 -5 365 304 222
222 318 312 318 298 0 -14 -103 -123 -298 -318 -274 -273 -296 -297 -268 -297
19 0 26 3 19 8 -9 5 82 102 277 297 160 159 290 295 290 302 0 6 -5 15 -10 18
-7 4 -7 11 -2 18 12 15 9 60 -4 64 -5 2 -163 -151 -350 -339z m30 -29 c-206
-206 -326 -319 -339 -319 -14 0 85 105 315 335 229 229 336 330 339 319 2 -11
-106 -126 -315 -335z"/>
<path d="M1633 460 c-145 -146 -263 -269 -263 -273 0 -8 49 -1 58 8 3 3 -3 5
-14 5 -12 0 62 81 220 239 132 132 244 239 249 238 11 -2 29 41 19 45 -4 2
-125 -116 -269 -262z"/>
<path d="M1660 425 c-123 -123 -222 -226 -220 -228 9 -7 70 13 70 23 0 5 -8 7
-17 3 -10 -3 65 78 167 181 102 102 190 186 197 186 6 0 18 14 27 30 8 17 11
30 8 30 -4 0 -108 -101 -232 -225z"/>
<path d="M1692 397 c-94 -94 -167 -173 -162 -175 14 -5 50 17 50 31 0 7 53 64
117 127 65 63 112 108 105 101 -6 -8 -12 -21 -12 -28 0 -14 -131 -149 -166
-170 -18 -11 -18 -12 0 -12 11 -1 56 36 107 87 74 74 87 92 85 116 -2 16 2 30
10 33 14 5 48 52 42 59 -3 2 -82 -74 -176 -169z"/>
<path d="M167 423 c-9 -2 -15 -8 -12 -12 6 -11 55 -1 55 10 0 9 -13 10 -43 2z"/>
<path d="M240 420 c0 -5 14 -10 32 -10 36 0 33 9 -6 16 -14 2 -26 0 -26 -6z"/>
<path d="M95 410 c-3 -5 1 -10 9 -10 8 0 18 5 21 10 3 6 -1 10 -9 10 -8 0 -18
-4 -21 -10z"/>
<path d="M325 410 c3 -5 15 -10 26 -10 10 0 19 5 19 10 0 6 -12 10 -26 10 -14
0 -23 -4 -19 -10z"/>
<path d="M400 405 c0 -9 44 -23 54 -17 5 3 1 9 -10 13 -23 9 -44 11 -44 4z"/>
<path d="M493 386 c4 -14 47 -21 47 -8 0 5 -11 12 -25 15 -16 3 -24 0 -22 -7z"/>
<path d="M570 361 c0 -10 42 -23 49 -15 7 6 -20 24 -36 24 -7 0 -13 -4 -13 -9z"/>
<path d="M645 340 c-3 -5 -3 -10 2 -10 4 0 19 -3 33 -6 24 -5 24 -5 6 10 -23
19 -32 20 -41 6z"/>
<path d="M720 315 c0 -9 44 -23 54 -18 4 3 2 9 -5 14 -15 10 -49 12 -49 4z"/>
<path d="M805 290 c-3 -4 2 -11 11 -14 23 -9 46 -7 40 3 -8 12 -45 21 -51 11z"/>
<path d="M880 265 c0 -9 44 -23 54 -18 4 3 2 9 -5 14 -15 10 -49 12 -49 4z"/>
<path d="M965 240 c-3 -5 -3 -10 2 -10 4 0 19 -3 33 -6 24 -5 24 -5 6 10 -23
19 -32 20 -41 6z"/>
<path d="M1045 220 c-3 -5 -3 -10 2 -10 4 0 19 -3 33 -6 24 -5 24 -5 6 10 -23
19 -32 20 -41 6z"/>
</g>
</svg>
